HIERARCHY
ROOT Pelvis
{
	OFFSET 0.000000 0.000000 0.000000
	CHANNELS 6 Xposition Yposition Zposition Xrotation Yrotation Zrotation
	JOINT LeftUpLeg_virtual
	{
		OFFSET 0.000000 0.000000 0.000000
		CHANNELS 3 Xrotation Yrotation Zrotation
		JOINT LeftUpLeg
		{
			OFFSET 18.735201 -5.666702 -4.541200
			CHANNELS 3 Xrotation Yrotation Zrotation
			JOINT LeftLeg
			{
				OFFSET -0.021200 -31.938179 0.493100
				CHANNELS 3 Xrotation Yrotation Zrotation
				JOINT LeftFoot
				{
					OFFSET 0.021200 -31.938179 -4.336299
					CHANNELS 3 Xrotation Yrotation Zrotation
					JOINT LeftToeBase
					{
						OFFSET 0.943001 -26.722000 15.023500
						CHANNELS 3 Xrotation Yrotation Zrotation
						End Site
						{
							OFFSET 0 0 0
						}
					}
				}
			}
		}
	}
	JOINT RightUpLeg_virtual
	{
		OFFSET 0.000000 0.000000 0.000000
		CHANNELS 3 Xrotation Yrotation Zrotation
		JOINT RightUpLeg
		{
			OFFSET -18.735201 -5.666702 -4.541200
			CHANNELS 3 Xrotation Yrotation Zrotation
			JOINT RightLeg
			{
				OFFSET 0.018946 -31.938133 0.493100
				CHANNELS 3 Xrotation Yrotation Zrotation
				JOINT RightFoot
				{
					OFFSET -0.018946 -31.938126 -4.336299
					CHANNELS 3 Xrotation Yrotation Zrotation
					JOINT RightToeBase
					{
						OFFSET -0.943001 -26.722004 15.023500
						CHANNELS 3 Xrotation Yrotation Zrotation
						End Site
						{
							OFFSET 0 0 0
						}
					}
				}
			}
		}
	}
	JOINT Hips_virtual
	{
		OFFSET 0.000000 0.000000 0.000000
		CHANNELS 3 Xrotation Yrotation Zrotation
		JOINT Hips
		{
			OFFSET -0.000000 -0.000000 -0.000000
			CHANNELS 3 Xrotation Yrotation Zrotation
			JOINT Spine
			{
				OFFSET 0.000000 10.199997 -0.299500
				CHANNELS 3 Xrotation Yrotation Zrotation
				JOINT Spine1
				{
					OFFSET 0.000000 11.900002 -1.516600
					CHANNELS 3 Xrotation Yrotation Zrotation
					JOINT Spine2
					{
						OFFSET 0.000000 13.600006 -2.842500
						CHANNELS 3 Xrotation Yrotation Zrotation
						JOINT Neck_virtual
						{
							OFFSET 0.000000 0.000000 0.000000
							CHANNELS 3 Xrotation Yrotation Zrotation
							JOINT Neck
							{
								OFFSET 0.000000 9.624100 -2.890100
								CHANNELS 3 Xrotation Yrotation Zrotation
								JOINT Head
								{
									OFFSET 0.000000 14.068802 -1.351900
									CHANNELS 3 Xrotation Yrotation Zrotation
									End Site
									{
										OFFSET 0 0 0
									}
								}
							}
						}
						JOINT LeftShoulder_virtual
						{
							OFFSET 0.000000 0.000000 0.000000
							CHANNELS 3 Xrotation Yrotation Zrotation
							JOINT LeftShoulder
							{
								OFFSET 15.263000 10.923401 -0.547700
								CHANNELS 3 Xrotation Yrotation Zrotation
								JOINT LeftArm
								{
									OFFSET 25.438599 -2.830597 -13.032500
									CHANNELS 3 Xrotation Yrotation Zrotation
									JOINT LeftForeArm
									{
										OFFSET 29.960503 0.000000 0.000000
										CHANNELS 3 Xrotation Yrotation Zrotation
										JOINT LeftHand
										{
											OFFSET 27.849251 0.000000 0.000000
											CHANNELS 3 Xrotation Yrotation Zrotation
											End Site
											{
												OFFSET 0 0 0
											}
										}
									}
								}
							}
						}
						JOINT RightShoulder_virtual
						{
							OFFSET 0.000000 0.000000 0.000000
							CHANNELS 3 Xrotation Yrotation Zrotation
							JOINT RightShoulder
							{
								OFFSET -15.263000 10.923401 -0.547700
								CHANNELS 3 Xrotation Yrotation Zrotation
								JOINT RightArm
								{
									OFFSET -25.438599 -2.830597 -13.032500
									CHANNELS 3 Xrotation Yrotation Zrotation
									JOINT RightForeArm
									{
										OFFSET -29.960503 0.000000 0.000000
										CHANNELS 3 Xrotation Yrotation Zrotation
										JOINT RightHand
										{
											OFFSET -27.849251 0.000000 0.000000
											CHANNELS 3 Xrotation Yrotation Zrotation
											End Site
											{
												OFFSET 0 0 0
											}
										}
									}
								}
							}
						}
					}
				}
			}
		}
	}
}
MOTION
Frames: 10
Frame Time: 0.03333333
1.794739 44.516121 -0.981682 0.000000 0.000000 0.000000 1.039977 -28.509367 8.977238 -84.111471 -26.460085 51.310413 78.075858 4.413281 -6.490000 36.158397 -1.237754 -15.999223 0.000000 0.000000 0.000000 1.039977 -28.509367 8.977238 -30.283583 7.708792 -20.136229 107.692091 11.616132 -0.179102 33.413845 5.158444 24.703466 0.000000 0.000000 0.000000 1.039977 -28.509367 8.977238 0.000000 0.000000 0.000000 3.553537 -6.127877 -4.346597 2.844910 -4.152764 -2.149814 0.000000 0.000000 0.000000 2.768607 -4.212009 -2.111295 0.200337 1.132792 0.945424 0.000000 0.000000 0.000000 2.768607 -4.212009 -2.111295 1.530164 -0.744398 -1.917309 -3.271997 -12.105441 -51.033032 0.001309 -88.077352 0.001425 0.000000 0.000000 0.000000 2.768607 -4.212009 -2.111295 5.560238 17.956441 2.651589 -32.494444 -15.150570 39.610299 179.999554 85.307191 -179.999582 0.000000 0.000000 0.000000 
1.741692 44.525276 -0.973377 0.000000 0.000000 0.000000 1.172246 -28.488422 9.118829 -84.110378 -26.292245 51.480830 77.967122 4.418194 -6.615321 36.189470 -1.177921 -15.912227 0.000000 0.000000 0.000000 1.172246 -28.488422 9.118829 -30.536536 7.711126 -20.057755 107.790227 11.594470 -0.181328 33.366051 5.101815 24.521680 0.000000 0.000000 0.000000 1.172246 -28.488422 9.118829 0.000000 -0.000002 0.000000 3.524595 -6.048939 -4.601641 2.810492 -4.080789 -2.306023 0.000000 0.000000 0.000000 2.744172 -4.136585 -2.266373 0.215620 1.147344 1.081317 0.000000 0.000000 0.000000 2.744172 -4.136585 -2.266373 1.480362 -0.701462 -1.238072 -3.264501 -12.231476 -51.554322 -0.000240 -88.164847 -0.000320 0.000000 0.000000 0.000000 2.744172 -4.136585 -2.266373 5.526708 18.040667 3.182610 -31.850938 -14.060286 37.299544 179.998776 81.908250 -179.998817 0.000000 0.000000 0.000000 
1.675385 44.517097 -0.977207 0.000000 0.000000 0.000000 1.262287 -28.407493 9.221489 -84.051522 -26.199194 51.645680 77.815860 4.467544 -6.825193 36.250744 -1.253167 -15.805007 0.000000 0.000000 0.000000 1.262287 -28.407493 9.221489 -30.625499 7.600830 -20.012581 107.769279 11.562052 -0.194029 33.404396 5.093714 24.453228 0.000000 0.000000 0.000000 1.262287 -28.407493 9.221489 0.000000 -0.000002 0.000000 3.496205 -6.015429 -4.848483 2.778898 -4.047170 -2.456910 0.000000 0.000000 0.000000 2.720403 -4.100474 -2.416177 0.207254 1.145084 1.212080 0.000000 0.000000 0.000000 2.720403 -4.100474 -2.416177 1.394879 -0.547448 -0.756146 -3.173333 -12.400897 -51.843427 -0.000341 -88.301765 -0.000375 0.000000 0.000000 0.000000 2.720403 -4.100474 -2.416177 5.516189 18.164644 3.729364 -31.699598 -13.049960 35.547187 -179.977179 79.047111 179.977479 0.000000 0.000000 0.000000 
1.585406 44.498055 -0.990536 0.000000 0.000000 0.000000 1.254790 -28.297074 9.211379 -83.855619 -26.243139 51.870588 77.635844 4.546261 -7.124011 36.350417 -1.451668 -15.692064 0.000000 0.000000 0.000000 1.254790 -28.297074 9.211379 -30.512873 7.354739 -19.933123 107.615252 11.458804 -0.214904 33.546320 5.127632 24.445394 0.000000 0.000000 0.000000 1.254790 -28.297074 9.211379 0.000000 0.000000 0.000000 3.502736 -5.993617 -5.085019 2.778295 -4.029405 -2.594783 0.000000 0.000000 0.000000 2.726739 -4.080767 -2.553045 0.161479 1.116099 1.349509 0.000000 0.000000 0.000000 2.726739 -4.080767 -2.553045 1.305362 -0.378405 -0.327617 -3.074695 -12.555273 -52.027252 0.000839 -88.472226 0.000608 0.000000 0.000000 0.000000 2.726739 -4.080767 -2.553045 5.517665 18.291685 4.317716 -31.107478 -11.715383 33.989644 -179.999213 76.485333 179.999226 0.000000 0.000000 0.000000 
1.468058 44.474007 -1.009209 0.000000 0.000000 0.000000 1.170302 -28.221811 9.088623 -83.588108 -26.365575 52.201213 77.454256 4.629449 -7.406795 36.472035 -1.750252 -15.556722 0.000000 0.000000 0.000000 1.170302 -28.221811 9.088623 -30.260675 7.051981 -19.751746 107.381536 11.305525 -0.240350 33.723359 5.186935 24.495941 0.000000 0.000000 0.000000 1.170302 -28.221811 9.088623 0.000000 0.000000 0.000000 3.558720 -5.917017 -5.321422 2.815613 -3.973172 -2.722688 0.000000 0.000000 0.000000 2.771316 -4.022599 -2.680190 0.077804 1.062952 1.504270 0.000000 0.000000 0.000000 2.771316 -4.022599 -2.680190 1.226717 -0.247967 0.191056 -3.087219 -12.737173 -52.240661 0.000184 -88.656661 -0.000036 0.000000 0.000000 0.000000 2.771316 -4.022599 -2.680190 5.509035 18.371208 4.953006 -30.011612 -10.281310 32.425165 -179.999868 74.019300 179.999909 0.000000 0.000000 0.000000 
1.337711 44.454109 -1.027866 0.000000 0.000000 0.000000 1.073056 -28.177032 8.926640 -83.381754 -26.445828 52.564279 77.267731 4.712022 -7.585893 36.596570 -2.102331 -15.392306 0.000000 0.000000 0.000000 1.073056 -28.177032 8.926640 -29.941012 6.765739 -19.509646 107.129612 11.178983 -0.265942 33.821345 5.251940 24.641984 0.000000 0.000000 0.000000 1.073056 -28.177032 8.926640 0.000000 0.000001 0.000000 3.641890 -5.774071 -5.564743 2.868905 -3.865685 -2.848181 0.000000 0.000000 0.000000 2.832435 -3.913114 -2.804961 -0.035692 0.994305 1.684613 0.000000 0.000000 0.000000 2.832435 -3.913114 -2.804961 1.158530 -0.155919 0.806808 -3.216553 -12.999024 -52.532655 0.000468 -88.832484 0.000545 0.000000 0.000000 0.000000 2.832435 -3.913114 -2.804961 5.483501 18.399580 5.611604 -28.556983 -8.861176 30.777078 179.999950 71.784113 -179.999950 0.000000 0.000000 0.000000 
1.219694 44.454956 -1.036594 0.000000 0.000000 0.000000 0.974154 -28.077267 8.794966 -83.274623 -26.405863 52.795662 77.051863 4.812162 -7.670600 36.706622 -2.441770 -15.246739 0.000000 0.000000 0.000000 0.974154 -28.077267 8.794966 -29.551514 6.471098 -19.352354 106.886259 11.133946 -0.288781 33.760823 5.295744 24.861108 0.000000 0.000000 0.000000 0.974154 -28.077267 8.794966 0.000000 0.000000 0.000001 3.719003 -5.639446 -5.804446 2.916484 -3.766131 -2.975204 0.000000 0.000000 0.000000 2.887549 -3.811522 -2.931171 -0.156883 0.924704 1.872705 0.000000 0.000000 0.000000 2.887549 -3.811522 -2.931171 1.087779 -0.046546 1.319950 -3.299649 -13.327372 -52.781687 -0.000006 -89.005937 0.000098 0.000000 0.000000 0.000000 2.887549 -3.811522 -2.931171 5.462831 18.429000 6.230589 -26.761171 -7.355572 29.204144 -180.000005 69.786174 179.999991 0.000000 0.000000 0.000000 
1.124468 44.479813 -1.028633 0.000000 0.000000 0.000000 0.870013 -27.877007 8.707257 -83.239809 -26.260107 52.838535 76.799070 4.931955 -7.700623 36.800438 -2.729838 -15.173556 0.000000 0.000000 0.000000 0.870013 -27.877007 8.707257 -29.105827 6.123159 -19.335033 106.653021 11.161785 -0.309393 33.561917 5.305784 25.087913 0.000000 0.000000 0.000000 0.870013 -27.877007 8.707257 0.000001 0.000000 0.000001 3.761662 -5.568224 -6.020843 2.944082 -3.721395 -3.097348 0.000000 0.000000 0.000000 2.921877 -3.764495 -3.052726 -0.258077 0.872083 2.029308 0.000000 0.000000 0.000000 2.921877 -3.764495 -3.052726 1.005242 0.123647 1.558521 -3.192904 -13.660937 -52.879748 0.000919 -89.201314 0.001041 0.000000 0.000000 0.000000 2.921877 -3.764495 -3.052726 5.467558 18.501009 6.754296 -24.524161 -5.726041 27.904559 -179.999964 67.812550 179.999964 0.000000 0.000000 0.000000 
1.034425 44.503403 -1.015316 0.000000 0.000000 0.000000 0.840344 -27.616050 8.656154 -83.304798 -26.076940 52.824150 76.499334 5.061087 -7.709287 36.925724 -2.975693 -15.147515 0.000000 0.000000 0.000000 0.840344 -27.616050 8.656154 -28.704973 5.738438 -19.336996 106.411035 11.202827 -0.336314 33.332539 5.314335 25.344325 0.000000 0.000000 0.000000 0.840344 -27.616050 8.656154 0.000000 -0.000002 0.000000 3.737836 -5.521925 -6.206373 2.925121 -3.704560 -3.199767 0.000000 0.000000 0.000000 2.909359 -3.744670 -3.155005 -0.331124 0.848359 2.132647 0.000000 0.000000 0.000000 2.909359 -3.744670 -3.155005 0.916076 0.331035 1.628548 -2.912425 -13.979905 -52.942825 0.002746 -89.351688 0.003244 0.000000 0.000000 0.000000 2.909359 -3.744670 -3.155005 5.493398 18.607003 7.192123 -21.879949 -4.093643 26.906239 179.999991 65.791155 180.000005 0.000000 0.000000 0.000000 
0.916952 44.502663 -1.029667 0.000000 0.000000 0.000000 0.942840 -27.350239 8.644105 -83.479419 -25.859142 52.907352 76.081279 5.207485 -7.727698 37.163565 -3.213090 -15.077048 0.000000 0.000000 0.000000 0.942840 -27.350239 8.644105 -28.389526 5.353375 -19.230121 106.125014 11.195431 -0.383451 33.173495 5.376548 25.741052 0.000000 0.000000 0.000000 0.942840 -27.350239 8.644105 0.000000 0.000000 0.000000 3.649270 -5.419551 -6.375790 2.852530 -3.651497 -3.278000 0.000000 0.000000 0.000000 2.843635 -3.688245 -3.233497 -0.393032 0.850652 2.192568 0.000000 0.000000 0.000000 2.843635 -3.688245 -3.233497 0.841793 0.489482 1.803480 -2.573837 -14.335421 -53.172063 0.001649 -89.318725 0.001437 0.000000 0.000000 0.000000 2.843635 -3.688245 -3.233497 5.521072 18.704384 7.545879 -19.128571 -2.649546 26.209481 -179.999950 63.851566 179.999923 0.000000 0.000000 0.000000 
